PathFileType	4	(X/Y/Z)	Patient4_TMGait_0pt7_01_left_17.trc.trc
DataRate	CameraRate	NumFrames	NumMarkers	Units	OrigDataRate	OrigDataStartFrame	OrigNumFrames
85.889570552147	85.889570552147	5	33	mm	85.889570552147	53	       141
Frame#	Time	Sacral			L.Shoulder			Chest			R.Shoulder			Neck			R.ASIS			L.ASIS			R.Thigh.Superior			R.Thigh.Lateral			R.Thigh.Inferior			R.Patella			L.Thigh.Superior			L.Thigh.Lateral			L.Thigh.Inferior			L.Patella			L.Shank.Superior			L.Shank.Lateral			L.Shank.Inferior			R.Shank.Superior			R.Shank.Lateral			R.Shank.Inferior			R.Heel			R.Midfoot.Superior			R.Midfoot.Lateral			R.Toe			L.Heel			L.Midfoot.Lateral			L.Midfoot.Superior			L.Toe			L.Elbow			L.Wrist			R.Elbow			R.Wrist			
		X1	Y1	Z1	X2	Y2	Z2	X3	Y3	Z3	X4	Y4	Z4	X5	Y5	Z5	X6	Y6	Z6	X7	Y7	Z7	X8	Y8	Z8	X9	Y9	Z9	X10	Y10	Z10	X11	Y11	Z11	X12	Y12	Z12	X13	Y13	Z13	X14	Y14	Z14	X15	Y15	Z15	X16	Y16	Z16	X17	Y17	Z17	X18	Y18	Z18	X19	Y19	Z19	X20	Y20	Z20	X21	Y21	Z21	X22	Y22	Z22	X23	Y23	Z23	X24	Y24	Z24	X25	Y25	Z25	X26	Y26	Z26	X27	Y27	Z27	X28	Y28	Z28	X29	Y29	Z29	X30	Y30	Z30	X31	Y31	Z31	X32	Y32	Z32	X33	Y33	Z33	

53	20.085428571429	808.289192104382	1011.305163410112	423.981182105329	998.073725647027	1428.349912068997	226.855157896208	1096.486621355418	1363.617363413917	393.634617335643	1012.489630993555	1449.679740726553	562.098813567854	999.228754569851	1497.592556065994	379.236546116064	1034.985945897909	952.004125734080	543.435977058156	1025.448432291953	964.382982151473	269.692430464005	1131.480342463691	798.993239733826	519.391421145229	1106.705440719474	677.330992849340	598.759505307570	1202.594294602146	647.601749651946	522.981168021252	1234.383456248699	536.086690414882	547.362731627826	1065.559461431523	750.829925000770	300.888313031891	969.967150084031	639.236434540997	243.415676613924	1048.758923725053	557.564800939956	307.480687495364	1044.218384214422	489.379865713370	319.076754359970	1019.206666877802	419.085846724116	311.342592973422	929.355158439468	303.726662178688	262.726257921921	981.530105037036	194.305644370991	336.036402128573	1164.171641030556	454.082734391486	553.703248846445	1045.118038985930	406.020861090959	612.477625377136	1039.533584090293	296.154077511970	564.375966366747	844.264446948567	214.207243999890	533.700567396644	1018.268118450874	179.176872730339	581.177066660404	908.004032884491	166.345382793376	611.358373524454	1093.616293373033	75.188706244084	614.006814120693	854.172315508663	38.395102090182	383.174637583028	926.860370924062	35.271614601281	301.058576037382	1009.747996330395	96.224317253260	325.988307541664	1138.314838634362	45.007779834265	295.663881430351	1003.012673972601	1079.989160216848	101.526898694160	1135.718854151255	854.869453825471	115.866204364114	975.025248627012	1107.548149695057	693.036875994695	1145.837864464548	914.402073729522	661.166802616433	
54	20.097071428571	807.393094611113	1010.688072645759	422.451682515954	998.293969626211	1428.671895373869	226.977819006040	1095.372421324381	1363.567109356198	394.407315346733	1009.980556651124	1449.103027716391	562.407842924880	998.312667824953	1497.524465268683	379.493313439824	1033.454967282589	952.482369619490	543.607821140311	1025.429857065326	964.433283401676	269.429001268155	1131.645780354654	801.845844438529	519.351412160538	1108.785762609987	679.909270214944	599.022850635129	1204.930445734746	651.419637729943	523.190061656403	1238.900794261044	541.424371977430	547.948004850175	1063.617974534904	749.912021221668	301.693302925131	967.228710567252	638.999064602710	243.039296588862	1044.393264507329	556.575971096499	307.836983312685	1038.995550433681	488.526794607034	319.469979900469	1013.716447462994	418.367225505427	311.575097300499	923.429735233309	303.555058378902	262.589196986519	974.247518006146	193.860123523259	336.273802928269	1172.378331623500	457.175711601176	554.617769983642	1056.372169356411	403.224410920475	614.043940100276	1056.175335428016	293.060347398284	566.235741416662	865.256408092933	201.795889736407	536.636341536414	1040.885881660480	174.588149571830	583.469216312217	931.409473845774	156.853356576733	614.013154444067	1120.924958752246	74.061734808455	616.097555877923	845.966107785863	38.384579566688	383.169267335038	918.675462553075	35.265381171634	301.082795090905	1001.607782615915	96.130684847617	326.131411194925	1130.174995973493	44.791834144638	295.726191441671	1010.933617584861	1082.126009056159	98.271688995327	1154.740280862091	863.910239547029	113.781973226738	965.209764045944	1107.510865832799	693.365402601815	1119.944392886433	899.212139232393	671.308633183260	
55	20.108714285714	806.662268304756	1009.997013966054	421.064045793382	998.661811746654	1428.932235409200	227.217905445875	1094.370126084820	1363.428161507697	395.293787781516	1007.587925085814	1448.459876648842	562.809750859513	997.488943831481	1497.384606141703	379.859502672700	1031.988832668496	952.789575803352	543.862439302984	1025.504586152531	964.405445949791	269.294628187388	1131.523227277235	804.090395200230	519.451093210765	1110.150697838546	681.886724522512	599.333865014935	1206.404901552186	654.362110783145	523.433027832090	1242.310075701929	546.132978312818	548.566428897904	1061.658090296925	748.938999367198	302.458773575445	964.379291928368	638.755712640971	242.707256487525	1039.895395724148	555.581297897298	308.155452694784	1033.665161250489	487.706348442336	319.786743231068	1008.099621002138	417.671186846244	311.763444386875	917.377306447120	303.391251283574	262.436845096721	966.871464935211	193.421852934749	336.479739117917	1179.821463696048	459.809671528333	555.576107085299	1067.479756698129	399.708644359472	615.740070663044	1073.141330836965	289.550100005809	568.208252598182	887.489137201365	188.560835099244	539.694542189974	1064.459966628037	169.694498096352	585.838839969734	956.069117127651	146.798965930830	616.759614339074	1149.336154916369	73.078729759790	618.230675065461	837.773920298417	38.390335274440	383.145775814747	910.491454006168	35.254898666883	301.102384930181	993.471496696334	96.043947040008	326.254711283418	1122.036303841335	44.566923172046	295.787201031975	1018.290600425102	1084.388047047599	95.275206721929	1173.218650684843	873.934718030450	112.227349799481	955.782175043794	1107.597497294932	693.739715881406	1093.159885450829	886.016344942860	681.160922341104	
56	20.120357142857	806.093676125958	1009.251077843800	419.821420415655	999.170929090999	1429.116802725758	227.575679516354	1093.486997887035	1363.200484244377	396.290060650702	1005.329059541200	1447.756725487887	563.303419202396	996.764286954325	1497.167724424332	380.334340385031	1030.602339676100	952.903673002828	544.176273105797	1025.673313962350	964.297956775355	269.288087931106	1131.097959323334	805.656731060348	519.681463964122	1110.759411489813	683.194162223262	599.701878068077	1206.991769201536	656.347008183131	523.725427881938	1244.598759079666	550.130242789237	549.207232315815	1059.666499419166	747.907031297591	303.152968951017	961.375050376318	638.526002893242	242.415722329894	1035.226159652610	554.590374433830	308.415859317748	1028.185007471071	486.927778118693	320.015416546595	1002.314075029655	417.018413837726	311.897934133248	911.162564759773	303.248577046553	262.263815087764	959.398408457854	193.006997571381	336.645111518242	1186.451560822600	461.974876188492	556.564024667096	1078.431613334425	395.586322988486	617.559288269641	1090.348901621949	285.812287511279	570.259922845995	910.950207108907	174.880385741743	542.817209505822	1088.887064997617	164.762369683612	588.236593896884	981.913726816117	136.515313792954	619.530901025739	1178.634810639599	72.483554010993	620.304163714242	829.593917531223	38.415855996520	383.102794249829	902.308798623824	35.242172147283	301.116100261612	985.339443646045	95.964689167264	326.353332913861	1113.897607712827	44.335403461467	295.844743313267	1025.090692403628	1086.704356827445	92.559956463382	1191.051193921166	884.900959668313	111.191019169748	946.679537757407	1107.827569812026	694.143438466468	1065.845319136453	874.979954012775	690.512525367155	
57	20.132000000000	805.684322486294	1008.463339852139	418.724271238838	999.805534813163	1429.210324217356	228.051543996252	1092.727937177051	1362.883674719741	397.388514801812	1003.223456187710	1446.998799489150	563.885615536151	996.142142896303	1496.866785823829	380.915877631899	1029.320995898223	952.813014188413	544.544240772491	1025.943493792148	964.111802139500	269.408285885502	1130.359861837137	806.486430927152	520.041349578670	1110.585322201359	683.779583606873	600.144479681531	1206.684254951115	657.319589261486	524.087591291885	1245.774608636314	553.352692102908	549.860234185342	1057.632573560610	746.812250462861	303.754876713605	958.180601300161	638.328405755512	242.159204577835	1030.354722593454	553.612553971841	308.602656882727	1022.519178452782	486.195151431653	320.147582128635	996.323076492142	416.427192914674	311.969561710658	904.753733286130	303.139986383167	262.065363368571	951.830201205336	192.631873446797	336.759568844579	1192.233112969831	463.671486527915	557.569735739686	1089.201905387129	390.980010901030	619.485951957439	1107.687121275269	282.033412620191	572.351144185667	935.560836331918	161.127470253605	545.938542138003	1114.012996661461	160.052466322909	590.607422111795	1008.813651713376	126.326969971406	622.252157429892	1208.563939515591	72.507030076267	622.217724757571	821.421967565956	38.462564376412	383.041943983132	894.127023529090	35.228661231615	301.123224717237	977.210730451280	95.892893102865	326.423374482454	1105.756928663981	44.101433207566	295.897334208285	1031.361791183796	1089.004988969064	90.150464317208	1208.139176608998	896.749792224284	110.657305609191	937.831732328764	1108.228146570207	694.568805456070	1038.395151905319	866.190223445621	699.175974311413	
